<?xml version="1.0" encoding="UTF-8"?>
<svg id="Layer_1" xmlns="http://www.w3.org/2000/svg" version="1.1" viewBox="0 0 800 150">
  <!-- Generator: Adobe Illustrator 29.8.7, SVG Export Plug-In . SVG Version: 2.1.1 Build 1)  -->
  <defs>
    <style>
      .st0 {
        fill: #f4e967;
      }

      .st1 {
        fill: #472f45;
      }

      .st2 {
        fill: #fff;
      }

      .st3 {
        fill: #f4698e;
      }

      .st4 {
        fill: #444;
      }

      .st5 {
        fill: #5ac3f2;
      }
    </style>
  </defs>
  <g>
    <path class="st1" d="M78.28,20.33c-30.19,0-54.67,24.48-54.67,54.67s24.48,54.67,54.67,54.67,54.67-24.48,54.67-54.67-24.48-54.67-54.67-54.67ZM105.91,104.88c0,1.71-1.39,3.1-3.1,3.1h-49.06c-1.71,0-3.1-1.39-3.1-3.1v-59.75c0-1.71,1.39-3.1,3.1-3.1h30.11c12.18,0,22.05,9.87,22.05,22.05v40.8Z"/>
    <path class="st2" d="M83.86,42.02h-30.11c-1.71,0-3.1,1.39-3.1,3.1v59.75c0,1.71,1.39,3.1,3.1,3.1h49.06c1.71,0,3.1-1.39,3.1-3.1v-40.8c0-12.18-9.87-22.05-22.05-22.05ZM75.85,92.07l-6.95,6.95c-.88.88-2.31.88-3.19,0l-7.76-7.76c-2.8-2.8-2.8-7.34,0-10.14h0c2.8-2.8,7.34-2.8,10.14,0l7.76,7.76c.88.88.88,2.31,0,3.19ZM87.92,80.01l-6.95,6.95c-.88.88-2.31.88-3.19,0l-7.76-7.76c-2.8-2.8-2.8-7.34,0-10.14h0c2.8-2.8,7.34-2.8,10.14,0l7.76,7.76c.88.88.88,2.31,0,3.19ZM99.98,67.94l-6.95,6.95c-.88.88-2.31.88-3.19,0l-7.76-7.76c-2.8-2.8-2.8-7.34,0-10.14h0c2.8-2.8,7.34-2.8,10.14,0l7.76,7.76c.88.88.88,2.31,0,3.19Z"/>
    <circle class="st2" cx="73.23" cy="72.27" r="2.13" transform="translate(-29.65 72.95) rotate(-45)"/>
    <circle class="st2" cx="61.16" cy="84.33" r="2.13"/>
    <circle class="st2" cx="85.3" cy="60.2" r="2.13"/>
    <path class="st5" d="M68.09,81.12c-2.8-2.8-7.34-2.8-10.14,0h0c-2.8,2.8-2.8,7.34,0,10.14l7.76,7.76c.88.88,2.31.88,3.19,0l6.95-6.95c.88-.88.88-2.31,0-3.19l-7.76-7.76ZM62.67,85.84c-.83.83-2.18.83-3.02,0s-.83-2.18,0-3.02,2.18-.83,3.02,0,.83,2.18,0,3.02Z"/>
    <path class="st3" d="M80.16,69.05c-2.8-2.8-7.34-2.8-10.14,0h0c-2.8,2.8-2.8,7.34,0,10.14l7.76,7.76c.88.88,2.31.88,3.19,0l6.95-6.95c.88-.88.88-2.31,0-3.19l-7.76-7.76ZM74.74,73.78c-.83.83-2.18.83-3.02,0-.83-.83-.83-2.18,0-3.02s2.18-.83,3.02,0c.83.83.83,2.18,0,3.02Z"/>
    <path class="st0" d="M82.08,56.99h0c-2.8,2.8-2.8,7.34,0,10.14l7.76,7.76c.88.88,2.31.88,3.19,0l6.95-6.95c.88-.88.88-2.31,0-3.19l-7.76-7.76c-2.8-2.8-7.34-2.8-10.14,0ZM86.8,61.71c-.83.83-2.18.83-3.02,0s-.83-2.18,0-3.02,2.18-.83,3.02,0,.83,2.18,0,3.02Z"/>
  </g>
  <g>
    <path class="st4" d="M166.69,108.35v-58.58h22.5c7.29,0,13.02,1.65,17.18,4.96,4.17,3.31,6.25,8.01,6.25,14.1s-2.08,10.79-6.25,14.1c-4.17,3.31-9.89,4.96-17.18,4.96h-8.9v20.46h-13.59ZM180.28,76.4h8.9c2.76,0,5.01-.62,6.76-1.87,1.74-1.25,2.62-3.15,2.62-5.7s-.87-4.52-2.62-5.74c-1.75-1.22-4-1.83-6.76-1.83h-8.9v15.15Z"/>
    <path class="st4" d="M220.9,108.35v-58.58h23.51c5.57,0,10.38,1.18,14.41,3.55,4.03,2.37,7.16,5.73,9.37,10.08,2.21,4.35,3.32,9.54,3.32,15.58s-1.11,11.18-3.32,15.58c-2.21,4.4-5.34,7.8-9.37,10.19-4.04,2.4-8.84,3.59-14.41,3.59h-23.51ZM234.49,97.1h9.92c4.06,0,7.25-1.58,9.57-4.73,2.32-3.15,3.48-7.62,3.48-13.4s-1.16-10.15-3.48-13.28c-2.32-3.12-5.51-4.69-9.57-4.69h-9.92v36.09Z"/>
    <path class="st4" d="M280.8,108.35v-58.58h38.98v11.79h-25.38v12.65h23.9v11.48h-23.9v22.65h-13.59Z"/>
    <path class="st4" d="M357.74,108.35v-46.4h-16.56v-12.18h46.86v12.18h-16.56v46.4h-13.75Z"/>
    <path class="st4" d="M405.15,109.52c-3.96,0-7.46-1.02-10.51-3.05-3.05-2.03-5.43-4.84-7.15-8.44-1.72-3.59-2.58-7.71-2.58-12.34s.83-8.53,2.5-11.99c1.67-3.46,3.96-6.17,6.87-8.12,2.92-1.95,6.27-2.93,10.08-2.93,2.92,0,5.51.56,7.77,1.68,2.27,1.12,4.1,2.67,5.51,4.65l.7-5.16h10.47v44.52h-10.47l-.7-5.86c-1.35,2.19-3.12,3.91-5.31,5.16s-4.58,1.88-7.19,1.88ZM407.42,98.43c2.92,0,5.23-1.14,6.95-3.44,1.72-2.29,2.58-5.39,2.58-9.29s-.86-6.99-2.58-9.26c-1.72-2.27-4.04-3.4-6.95-3.4s-5.31,1.13-7.03,3.4c-1.72,2.27-2.58,5.35-2.58,9.26s.86,7,2.58,9.29c1.72,2.29,4.06,3.44,7.03,3.44Z"/>
    <path class="st4" d="M453.58,104.68c-3.38,0-6.44-.86-9.18-2.58-2.73-1.72-4.91-4.15-6.52-7.3-1.62-3.15-2.42-6.86-2.42-11.13s.83-7.82,2.5-10.98c1.67-3.15,3.93-5.61,6.79-7.38,2.86-1.77,6.07-2.66,9.61-2.66,2.6,0,4.91.52,6.91,1.56,2,1.04,3.71,2.47,5.12,4.3l.55-4.69h11.17v40.46c0,3.75-.91,7.08-2.73,10-1.82,2.92-4.36,5.19-7.62,6.83-3.25,1.64-7.1,2.46-11.52,2.46-3.39,0-6.54-.68-9.45-2.03-2.92-1.35-5.27-3.25-7.07-5.7-1.8-2.45-2.75-5.29-2.85-8.51h11.01c.62,2.13,1.61,3.68,2.97,4.65,1.35.96,3.15,1.45,5.39,1.45,2.76,0,5-.79,6.72-2.38,1.72-1.59,2.58-3.84,2.58-6.76v-5.47c-1.15,1.72-2.68,3.12-4.61,4.22-1.93,1.09-4.37,1.64-7.34,1.64ZM456.7,94.76c2.76,0,4.92-.95,6.48-2.85,1.56-1.9,2.34-4.41,2.34-7.54s-.78-5.65-2.34-7.73c-1.56-2.08-3.72-3.12-6.48-3.12s-4.78,1.02-6.21,3.05c-1.43,2.03-2.15,4.64-2.15,7.81s.7,5.64,2.11,7.54c1.41,1.9,3.49,2.85,6.25,2.85Z"/>
    <path class="st4" d="M527.62,109.52c-4.58,0-8.74-.78-12.46-2.34-3.72-1.56-6.69-3.84-8.9-6.83-2.21-2.99-3.32-6.68-3.32-11.05h13.9c.26,2.92,1.35,5.08,3.28,6.48,1.93,1.41,4.32,2.11,7.19,2.11s5.13-.49,6.95-1.48c1.82-.99,2.73-2.37,2.73-4.14,0-1.51-.55-2.63-1.64-3.36-1.09-.73-2.76-1.43-5-2.11l-12.5-3.67c-2.45-.73-4.76-1.65-6.95-2.77-2.19-1.12-3.94-2.67-5.27-4.65-1.33-1.98-1.99-4.66-1.99-8.05,0-3.91.94-7.28,2.81-10.11,1.87-2.84,4.53-5.04,7.97-6.6,3.44-1.56,7.47-2.34,12.11-2.34,6.72,0,12.17,1.64,16.36,4.92,4.19,3.28,6.6,7.94,7.22,13.98h-14.06c-1.09-4.95-4.45-7.42-10.08-7.42-2.71,0-4.78.52-6.21,1.56-1.43,1.04-2.15,2.45-2.15,4.22,0,1.3.44,2.4,1.33,3.28.88.89,2.29,1.61,4.22,2.19l13.04,3.91c5,1.46,8.64,3.46,10.93,6.01,2.29,2.55,3.44,5.88,3.44,10,0,3.65-.95,6.83-2.85,9.57-1.9,2.73-4.57,4.87-8.01,6.4s-7.47,2.3-12.11,2.3Z"/>
    <path class="st4" d="M564.8,58.98c-2.03,0-3.74-.6-5.12-1.8-1.38-1.2-2.07-2.76-2.07-4.69s.69-3.41,2.07-4.61c1.38-1.2,3.08-1.8,5.12-1.8s3.66.6,5.04,1.8c1.38,1.2,2.07,2.73,2.07,4.61s-.69,3.49-2.07,4.69c-1.38,1.2-3.06,1.8-5.04,1.8ZM558.47,108.35v-44.52h12.65v44.52h-12.65Z"/>
    <path class="st4" d="M579.25,108.35v-26.56c0-3.85.79-7.24,2.38-10.15,1.59-2.92,3.79-5.21,6.6-6.87,2.81-1.67,6.04-2.5,9.69-2.5,3.28,0,6.3.68,9.06,2.03,2.76,1.35,5,3.23,6.72,5.62,1.77-2.39,4.02-4.27,6.76-5.62,2.73-1.35,5.71-2.03,8.94-2.03,3.64,0,6.85.83,9.61,2.5,2.76,1.67,4.92,3.96,6.48,6.87,1.56,2.92,2.34,6.3,2.34,10.15v26.56h-12.73v-26.56c0-2.39-.68-4.35-2.03-5.86-1.36-1.51-3.18-2.26-5.47-2.26s-4.08.76-5.51,2.26c-1.43,1.51-2.15,3.46-2.15,5.86v26.56h-12.65v-26.56c0-2.39-.72-4.35-2.15-5.86-1.43-1.51-3.29-2.26-5.58-2.26s-4.07.76-5.51,2.26c-1.43,1.51-2.15,3.46-2.15,5.86v26.56h-12.65Z"/>
    <path class="st4" d="M655.8,122.41v-58.58h10.7l1.02,6.56c1.51-2.5,3.49-4.41,5.94-5.74,2.45-1.33,5.08-1.99,7.89-1.99,3.96,0,7.39.99,10.31,2.97,2.92,1.98,5.18,4.71,6.79,8.2,1.61,3.49,2.42,7.53,2.42,12.11,0,4.22-.6,7.81-1.8,10.78-1.2,2.97-2.79,5.4-4.76,7.3-1.98,1.9-4.17,3.29-6.56,4.18-2.4.88-4.76,1.33-7.11,1.33s-4.73-.47-6.83-1.41c-2.11-.94-3.89-2.32-5.35-4.14v18.43h-12.65ZM677.98,99.13c3.07,0,5.51-1.13,7.3-3.4,1.8-2.27,2.69-5.35,2.69-9.26s-.9-7-2.69-9.29c-1.8-2.29-4.23-3.44-7.3-3.44s-5.23,1.15-6.95,3.44c-1.72,2.29-2.58,5.39-2.58,9.29s.86,6.99,2.58,9.26c1.72,2.26,4.04,3.4,6.95,3.4Z"/>
    <path class="st4" d="M719.61,108.35c-3.65,0-6.57-1.11-8.79-3.32-2.21-2.21-3.32-5.14-3.32-8.79v-46.47h12.65v44.29c0,.99.31,1.8.94,2.42s1.41.94,2.34.94h2.42v10.93h-6.25Z"/>
    <path class="st4" d="M753.2,109.52c-4.53,0-8.46-.95-11.79-2.85-3.33-1.9-5.92-4.61-7.77-8.12-1.85-3.51-2.77-7.67-2.77-12.46s.91-8.93,2.73-12.42c1.82-3.49,4.39-6.2,7.69-8.12,3.31-1.93,7.2-2.89,11.68-2.89s8.58,1.04,11.83,3.12c3.25,2.08,5.7,5.1,7.34,9.06,1.64,3.96,2.33,8.72,2.07,14.29h-30.62c.42,3.33,1.51,5.94,3.28,7.81,1.77,1.87,4.06,2.81,6.87,2.81,2.29,0,4.17-.56,5.62-1.68,1.46-1.12,2.37-2.49,2.73-4.1h11.79c-.52,3.23-1.73,6-3.63,8.32-1.9,2.32-4.31,4.1-7.22,5.35-2.92,1.25-6.2,1.88-9.84,1.88ZM753.04,72.34c-2.55,0-4.66.82-6.33,2.46-1.67,1.64-2.71,3.84-3.12,6.6h18.12c-.21-3.28-1.17-5.61-2.89-6.99-1.72-1.38-3.65-2.07-5.78-2.07Z"/>
  </g>
</svg>