<?xml version="1.0" encoding="UTF-8"?>
<svg id="Layer_1" xmlns="http://www.w3.org/2000/svg" version="1.1" viewBox="0 0 1000 1000">
  <!-- Generator: Adobe Illustrator 29.8.7, SVG Export Plug-In . SVG Version: 2.1.1 Build 1)  -->
  <defs>
    <style>
      .st0 {
        fill: #f4e967;
      }

      .st1 {
        fill: #472f45;
      }

      .st2 {
        fill: #fff;
      }

      .st3 {
        fill: #f4698e;
      }

      .st4 {
        fill: #5ac3f2;
      }
    </style>
  </defs>
  <circle class="st1" cx="500.48" cy="499.93" r="435.35"/>
  <g>
    <path class="st2" d="M305.13,237.35h239.77c96.92,0,175.61,78.69,175.61,175.61v324.89c0,13.62-11.06,24.67-24.67,24.67h-390.7c-13.62,0-24.67-11.06-24.67-24.67v-475.83c0-13.62,11.06-24.67,24.67-24.67Z"/>
    <path class="st4" d="M338.6,548.68h0c-22.3,22.3-22.3,58.46,0,80.77l61.79,61.79c7.02,7.02,18.4,7.02,25.41,0l55.35-55.35c7.02-7.02,7.02-18.4,0-25.41l-61.79-61.79c-22.3-22.3-58.46-22.3-80.77,0ZM376.2,586.28c-6.63,6.63-17.39,6.63-24.02,0-6.63-6.63-6.63-17.39,0-24.02s17.39-6.63,24.02,0c6.63,6.63,6.63,17.39,0,24.02Z"/>
    <path class="st3" d="M434.69,452.59h0c-22.3,22.3-22.3,58.46,0,80.77l61.79,61.79c7.02,7.02,18.4,7.02,25.41,0l55.35-55.35c7.02-7.02,7.02-18.4,0-25.41l-61.79-61.79c-22.3-22.3-58.46-22.3-80.77,0ZM472.29,490.19c-6.63,6.63-17.39,6.63-24.02,0s-6.63-17.39,0-24.02c6.63-6.63,17.39-6.63,24.02,0,6.63,6.63,6.63,17.39,0,24.02Z"/>
    <path class="st0" d="M530.78,356.5h0c-22.3,22.3-22.3,58.46,0,80.77l61.79,61.79c7.02,7.02,18.4,7.02,25.41,0l55.35-55.35c7.02-7.02,7.02-18.4,0-25.41l-61.79-61.79c-22.3-22.3-58.46-22.3-80.77,0ZM568.37,394.1c-6.63,6.63-17.39,6.63-24.02,0-6.63-6.63-6.63-17.39,0-24.02,6.63-6.63,17.39-6.63,24.02,0s6.63,17.39,0,24.02Z"/>
  </g>
</svg>